<?xml version="1.0" encoding="utf-8"?>
<!-- Generator: Adobe Illustrator 24.1.0, SVG Export Plug-In . SVG Version: 6.00 Build 0)  -->
<svg version="1.1" id="Layer_1" xmlns="http://www.w3.org/2000/svg" xmlns:xlink="http://www.w3.org/1999/xlink" x="0px" y="0px"
	 viewBox="0 0 312 311.9" style="enable-background:new 0 0 312 311.9;" xml:space="preserve">
<style type="text/css">
	.st0{fill:#F07F63;}
	.st1{fill:#E5E5E4;}
	.st2{fill:#FFFFFF;}
</style>
<g id="Group_8-2_1_" transform="translate(150.875 293.254)">
	<ellipse id="Ellipse_13-2_1_" class="st0" cx="5.6" cy="-137.4" rx="156" ry="156"/>
	<path id="Path_51-2_1_" class="st1" d="M-79.6-23.5L-79.6-23.5c-4.2,0-7.6-3.3-7.8-7.4l-4.3-83.3h24.3l-4.3,83.3
		C-72-26.7-75.4-23.5-79.6-23.5z"/>
	<path id="Path_52-2_1_" class="st1" d="M88.8-36.2h-0.1c-4.1,0-7.6-3.2-7.8-7.4l-4.3-70.6h24.3l-4.3,70.6
		C96.3-39.4,92.9-36.2,88.8-36.2z"/>
	<path id="Path_53-2_1_" class="st2" d="M140.8-131.3c0-29.4-60.5-53.3-135.2-53.3s-135.2,23.9-135.2,53.3
		c0,28.2,55.4,51.2,125.7,53.1L0,18.5c1.9,0.1,3.7,0.1,5.6,0.1c3.4,0,6.6-0.1,9.9-0.3l3.9-96.6C87.6-81,140.8-103.7,140.8-131.3z"/>
</g>
<polygon class="st1" points="147,215.1 170.4,215 170.1,220.8 147.2,220.8 "/>
</svg>
