<?xml version="1.0" encoding="utf-8"?>
<!-- Generator: Adobe Illustrator 24.1.0, SVG Export Plug-In . SVG Version: 6.00 Build 0)  -->
<svg version="1.1" id="Layer_1" xmlns="http://www.w3.org/2000/svg" xmlns:xlink="http://www.w3.org/1999/xlink" x="0px" y="0px"
	 viewBox="0 0 312 311.9" style="enable-background:new 0 0 312 311.9;" xml:space="preserve">
<style type="text/css">
	.st0{fill:#F07F63;}
	.st1{fill:#E5E5E4;}
	.st2{fill:#FFFFFF;}
</style>
<g id="Group_8-2_1_" transform="translate(150.875 293.254)">
	<ellipse id="Ellipse_13-2_1_" class="st0" cx="5.1" cy="-137.7" rx="156" ry="156"/>
	<path id="Path_51-2_1_" class="st1" d="M-80.1-23.8L-80.1-23.8c-4.2,0-7.6-3.3-7.8-7.4l-4.3-83.3h24.3l-4.3,83.3
		C-72.5-27.1-75.9-23.8-80.1-23.8z"/>
	<path id="Path_52-2_1_" class="st1" d="M88.2-36.5h-0.1c-4.1,0-7.6-3.2-7.8-7.4L76-114.5h24.3l-4.3,70.6
		C95.8-39.7,92.4-36.5,88.2-36.5z"/>
	<path id="Path_53-2_1_" class="st2" d="M140.3-131.6c0-29.4-60.5-53.3-135.2-53.3S-130-161.1-130-131.6
		c0,28.2,55.4,51.2,125.7,53.1l3.9,96.6c1.9,0.1,3.7,0.1,5.6,0.1c3.4,0,6.6-0.1,9.9-0.3L19-78.6C87.1-81.4,140.3-104.1,140.3-131.6z
		"/>
</g>
<polygon class="st1" points="146.5,214.7 169.8,214.6 169.6,220.5 146.7,220.5 "/>
</svg>
